<svg fill="#000000" xmlns="http://www.w3.org/2000/svg" viewBox="0 0 50 50" width="50px" height="50px"><path fill="none" stroke="#000000" stroke-miterlimit="10" stroke-width="2" d="M5.5,42h39c1.933,0,3.5-1.567,3.5-3.5v-27C48,9.567,46.433,8,44.5,8h-39C3.567,8,2,9.567,2,11.5v27C2,40.433,3.567,42,5.5,42z"/><path fill="none" stroke="#000000" stroke-miterlimit="10" stroke-width="2" d="M2,11.483c0,1.26,1.587,2.361,1.587,2.361L25,29l21.413-15.156c0,0,1.587-1.101,1.587-2.361"/><path fill="none" stroke="#000000" stroke-miterlimit="10" stroke-width="2" d="M44.892 8.132L25 22 4.978 8.041M43 16.236L43 42M7 16.236L7 42"/></svg>